<?xml version="1.0" encoding="UTF-8" standalone="no"?>
<!-- Created with Inkscape (http://www.inkscape.org/) -->

<svg
   xmlns:osb="http://www.openswatchbook.org/uri/2009/osb"
   xmlns:dc="http://purl.org/dc/elements/1.1/"
   xmlns:cc="http://creativecommons.org/ns#"
   xmlns:rdf="http://www.w3.org/1999/02/22-rdf-syntax-ns#"
   xmlns:svg="http://www.w3.org/2000/svg"
   xmlns="http://www.w3.org/2000/svg"
   xmlns:sodipodi="http://sodipodi.sourceforge.net/DTD/sodipodi-0.dtd"
   xmlns:inkscape="http://www.inkscape.org/namespaces/inkscape"
   width="60px"
   height="60px"
   viewBox="0 0 60 60"
   version="1.1"
   id="SVGRoot"
   inkscape:version="0.92.2 5c3e80d, 2017-08-06"
   sodipodi:docname="component-default.svg"
   inkscape:export-filename="/Users/lorenzo/Desktop/esb-project/reedelk-intellij-plugin/src/main/resources/icons/ComponentDefault.png"
   inkscape:export-xdpi="20.802221"
   inkscape:export-ydpi="20.802221">
  <sodipodi:namedview
     id="base"
     pagecolor="#ffffff"
     bordercolor="#666666"
     borderopacity="1.0"
     inkscape:pageopacity="0.0"
     inkscape:pageshadow="2"
     inkscape:zoom="5.6568542"
     inkscape:cx="-61.914387"
     inkscape:cy="13.197049"
     inkscape:document-units="px"
     inkscape:current-layer="layer1"
     showgrid="true"
     inkscape:window-width="1280"
     inkscape:window-height="756"
     inkscape:window-x="-3"
     inkscape:window-y="23"
     inkscape:window-maximized="0"
     inkscape:grid-bbox="true"
     showguides="false">
    <inkscape:grid
       type="xygrid"
       id="grid4640" />
  </sodipodi:namedview>
  <defs
     id="defs3699">
    <marker
       inkscape:isstock="true"
       style="overflow:visible"
       id="marker1975"
       refX="0.0"
       refY="0.0"
       orient="auto"
       inkscape:stockid="TriangleOutS">
      <path
         transform="scale(0.2)"
         style="fill-rule:evenodd;stroke:#136032;stroke-width:1pt;stroke-opacity:1;fill:#136032;fill-opacity:1"
         d="M 5.77,0.0 L -2.88,5.0 L -2.88,-5.0 L 5.77,0.0 z "
         id="path1973" />
    </marker>
    <marker
       inkscape:stockid="TriangleOutM"
       orient="auto"
       refY="0.0"
       refX="0.0"
       id="TriangleOutM"
       style="overflow:visible"
       inkscape:isstock="true">
      <path
         id="path4793"
         d="M 5.77,0.0 L -2.88,5.0 L -2.88,-5.0 L 5.77,0.0 z "
         style="fill-rule:evenodd;stroke:#136032;stroke-width:1pt;stroke-opacity:1;fill:#136032;fill-opacity:1"
         transform="scale(0.4)" />
    </marker>
    <marker
       inkscape:stockid="Arrow2Lend"
       orient="auto"
       refY="0.0"
       refX="0.0"
       id="Arrow2Lend"
       style="overflow:visible;"
       inkscape:isstock="true">
      <path
         id="path4669"
         style="fill-rule:evenodd;stroke-width:0.625;stroke-linejoin:round;stroke:#136032;stroke-opacity:1;fill:#136032;fill-opacity:1"
         d="M 8.7185878,4.0337352 L -2.2072895,0.016013256 L 8.7185884,-4.0017078 C 6.9730900,-1.6296469 6.9831476,1.6157441 8.7185878,4.0337352 z "
         transform="scale(1.1) rotate(180) translate(1,0)" />
    </marker>
    <marker
       inkscape:stockid="Arrow1Send"
       orient="auto"
       refY="0.0"
       refX="0.0"
       id="marker6088"
       style="overflow:visible;"
       inkscape:isstock="true">
      <path
         id="path6086"
         d="M 0.0,0.0 L 5.0,-5.0 L -12.5,0.0 L 5.0,5.0 L 0.0,0.0 z "
         style="fill-rule:evenodd;stroke:#136032;stroke-width:1pt;stroke-opacity:1;fill:#136032;fill-opacity:1"
         transform="scale(0.2) rotate(180) translate(6,0)" />
    </marker>
    <marker
       inkscape:isstock="true"
       style="overflow:visible;"
       id="marker5332"
       refX="0.0"
       refY="0.0"
       orient="auto"
       inkscape:stockid="Arrow2Send">
      <path
         transform="scale(0.3) rotate(180) translate(-2.3,0)"
         d="M 8.7185878,4.0337352 L -2.2072895,0.016013256 L 8.7185884,-4.0017078 C 6.9730900,-1.6296469 6.9831476,1.6157441 8.7185878,4.0337352 z "
         style="fill-rule:evenodd;stroke-width:0.625;stroke-linejoin:round;stroke:#136032;stroke-opacity:1;fill:#136032;fill-opacity:1"
         id="path5330" />
    </marker>
    <marker
       inkscape:stockid="Arrow1Send"
       orient="auto"
       refY="0.0"
       refX="0.0"
       id="Arrow1Send"
       style="overflow:visible;"
       inkscape:isstock="true">
      <path
         id="path4663"
         d="M 0.0,0.0 L 5.0,-5.0 L -12.5,0.0 L 5.0,5.0 L 0.0,0.0 z "
         style="fill-rule:evenodd;stroke:#136032;stroke-width:1pt;stroke-opacity:1;fill:#136032;fill-opacity:1"
         transform="scale(0.2) rotate(180) translate(6,0)" />
    </marker>
    <marker
       inkscape:stockid="Arrow1Lend"
       orient="auto"
       refY="0.0"
       refX="0.0"
       id="Arrow1Lend"
       style="overflow:visible;"
       inkscape:isstock="true">
      <path
         id="path4651"
         d="M 0.0,0.0 L 5.0,-5.0 L -12.5,0.0 L 5.0,5.0 L 0.0,0.0 z "
         style="fill-rule:evenodd;stroke:#136032;stroke-width:1pt;stroke-opacity:1;fill:#136032;fill-opacity:1"
         transform="scale(0.8) rotate(180) translate(12.5,0)" />
    </marker>
    <marker
       inkscape:stockid="Arrow2Mend"
       orient="auto"
       refY="0.0"
       refX="0.0"
       id="marker4958"
       style="overflow:visible;"
       inkscape:isstock="true">
      <path
         id="path4956"
         style="fill-rule:evenodd;stroke-width:0.625;stroke-linejoin:round;stroke:#136032;stroke-opacity:1;fill:#136032;fill-opacity:1"
         d="M 8.7185878,4.0337352 L -2.2072895,0.016013256 L 8.7185884,-4.0017078 C 6.9730900,-1.6296469 6.9831476,1.6157441 8.7185878,4.0337352 z "
         transform="scale(0.6) rotate(180) translate(0,0)" />
    </marker>
    <marker
       inkscape:stockid="Arrow2Send"
       orient="auto"
       refY="0.0"
       refX="0.0"
       id="Arrow2Send"
       style="overflow:visible;"
       inkscape:isstock="true">
      <path
         id="path4681"
         style="fill-rule:evenodd;stroke-width:0.625;stroke-linejoin:round;stroke:#136032;stroke-opacity:1;fill:#136032;fill-opacity:1"
         d="M 8.7185878,4.0337352 L -2.2072895,0.016013256 L 8.7185884,-4.0017078 C 6.9730900,-1.6296469 6.9831476,1.6157441 8.7185878,4.0337352 z "
         transform="scale(0.3) rotate(180) translate(-2.3,0)" />
    </marker>
    <marker
       inkscape:stockid="Arrow2Mend"
       orient="auto"
       refY="0.0"
       refX="0.0"
       id="Arrow2Mend"
       style="overflow:visible;"
       inkscape:isstock="true">
      <path
         id="path4675"
         style="fill-rule:evenodd;stroke-width:0.625;stroke-linejoin:round;stroke:#136032;stroke-opacity:1;fill:#136032;fill-opacity:1"
         d="M 8.7185878,4.0337352 L -2.2072895,0.016013256 L 8.7185884,-4.0017078 C 6.9730900,-1.6296469 6.9831476,1.6157441 8.7185878,4.0337352 z "
         transform="scale(0.6) rotate(180) translate(0,0)" />
    </marker>
    <linearGradient
       id="linearGradient4571"
       osb:paint="solid">
      <stop
         style="stop-color:#000000;stop-opacity:1;"
         offset="0"
         id="stop4569" />
    </linearGradient>
  </defs>
  <metadata
     id="metadata3702">
    <rdf:RDF>
      <cc:Work
         rdf:about="">
        <dc:format>image/svg+xml</dc:format>
        <dc:type
           rdf:resource="http://purl.org/dc/dcmitype/StillImage" />
        <dc:title />
      </cc:Work>
    </rdf:RDF>
  </metadata>
  <g
     id="layer1"
     inkscape:groupmode="layer"
     inkscape:label="Layer 1">
    <ellipse
       style="fill:#102131;stroke:none;stroke-opacity:1;fill-opacity:1"
       id="path3738"
       cx="30.079659"
       cy="-30.003204"
       rx="30.07966"
       ry="29.996796"
       transform="scale(1,-1)"
       inkscape:export-filename="/Users/lorenzo/Desktop/esb-project/esb-intellij-plugin/src/main/resources/icons/default-component-icon.png"
       inkscape:export-xdpi="20.802221"
       inkscape:export-ydpi="20.802221" />
  </g>
  <g
     inkscape:groupmode="layer"
     id="layer4"
     inkscape:label="Gear">
    <path
       id="path1108"
       d="M 47.80245,32.16226 V 27.448926 C 45.394738,26.592885 43.873694,26.35226 43.108068,24.504551 v -0.0014 c -0.768543,-1.853542 0.145833,-3.112083 1.23521,-5.406041 L 41.010982,15.764792 C 38.73452,16.846875 37.462851,17.77 35.604932,17 h -0.0014 c -1.85066,-0.767083 -2.092744,-2.298333 -2.944411,-4.694375 H 27.94578 C 27.097028,14.69 26.853487,16.231458 25.0014,17 H 25 c -1.853544,0.77 -3.109171,-0.142917 -5.40605,-1.235208 l -3.332328,3.332291 c 1.08646,2.286667 2.005211,3.549584 1.23521,5.406042 -0.768543,1.853542 -2.310003,2.097083 -4.694382,2.945833 v 4.713334 c 2.380004,0.845833 3.925839,1.092291 4.694382,2.944375 0.772918,1.869583 -0.16625,3.15875 -1.23521,5.406041 l 3.332296,3.33375 c 2.277921,-1.083541 3.549589,-2.005208 5.40605,-1.235208 h 0.0014 c 1.852087,0.767083 2.09417,2.302708 2.94438,4.694375 h 4.713341 c 0.848751,-2.385833 1.093751,-3.922917 2.956045,-4.69875 h 0.0014 c 1.840419,-0.764167 3.091671,0.147292 5.392924,1.241042 l 3.332297,-3.33375 c -1.085002,-2.279375 -2.005211,-3.548125 -1.236669,-5.404584 0.768543,-1.853541 2.315838,-2.1 4.697299,-2.947291 z m -17.500026,3.476666 c -3.221463,0 -5.833342,-2.611875 -5.833342,-5.833333 0,-3.221458 2.611879,-5.833333 5.833342,-5.833333 3.221463,0 5.833342,2.611875 5.833342,5.833333 0,3.221458 -2.611879,5.833333 -5.833342,5.833333 z"
       inkscape:connector-curvature="0"
       style="stroke-width:1.45833445;fill:#ffffff;fill-opacity:1" />
  </g>
</svg>
