<?xml version="1.0" encoding="UTF-8" standalone="no"?>
<!-- Created with Inkscape (http://www.inkscape.org/) -->

<svg
   xmlns:osb="http://www.openswatchbook.org/uri/2009/osb"
   xmlns:dc="http://purl.org/dc/elements/1.1/"
   xmlns:cc="http://creativecommons.org/ns#"
   xmlns:rdf="http://www.w3.org/1999/02/22-rdf-syntax-ns#"
   xmlns:svg="http://www.w3.org/2000/svg"
   xmlns="http://www.w3.org/2000/svg"
   xmlns:sodipodi="http://sodipodi.sourceforge.net/DTD/sodipodi-0.dtd"
   xmlns:inkscape="http://www.inkscape.org/namespaces/inkscape"
   width="60px"
   height="60px"
   viewBox="0 0 60 60"
   version="1.1"
   id="SVGRoot"
   inkscape:version="0.92.2 5c3e80d, 2017-08-06"
   sodipodi:docname="module-database_ddl-execute.svg"
   inkscape:export-filename="/Users/lorenzo/Desktop/esb-project/module-database/src/main/resources/com.reedelk.database.component.DDLExecute.png"
   inkscape:export-xdpi="96.010254"
   inkscape:export-ydpi="96.010254">
  <sodipodi:namedview
     id="base"
     pagecolor="#ffffff"
     bordercolor="#666666"
     borderopacity="1.0"
     inkscape:pageopacity="0.0"
     inkscape:pageshadow="2"
     inkscape:zoom="11.313708"
     inkscape:cx="4.9717093"
     inkscape:cy="26.849787"
     inkscape:document-units="px"
     inkscape:current-layer="layer5"
     showgrid="true"
     inkscape:window-width="1659"
     inkscape:window-height="838"
     inkscape:window-x="33"
     inkscape:window-y="21"
     inkscape:window-maximized="0"
     inkscape:grid-bbox="true"
     showguides="false">
    <inkscape:grid
       type="xygrid"
       id="grid4640" />
  </sodipodi:namedview>
  <defs
     id="defs3699">
    <marker
       inkscape:isstock="true"
       style="overflow:visible"
       id="marker1975"
       refX="0.0"
       refY="0.0"
       orient="auto"
       inkscape:stockid="TriangleOutS">
      <path
         transform="scale(0.2)"
         style="fill-rule:evenodd;stroke:#136032;stroke-width:1pt;stroke-opacity:1;fill:#136032;fill-opacity:1"
         d="M 5.77,0.0 L -2.88,5.0 L -2.88,-5.0 L 5.77,0.0 z "
         id="path1973" />
    </marker>
    <marker
       inkscape:stockid="TriangleOutM"
       orient="auto"
       refY="0.0"
       refX="0.0"
       id="TriangleOutM"
       style="overflow:visible"
       inkscape:isstock="true">
      <path
         id="path4793"
         d="M 5.77,0.0 L -2.88,5.0 L -2.88,-5.0 L 5.77,0.0 z "
         style="fill-rule:evenodd;stroke:#136032;stroke-width:1pt;stroke-opacity:1;fill:#136032;fill-opacity:1"
         transform="scale(0.4)" />
    </marker>
    <marker
       inkscape:stockid="Arrow2Lend"
       orient="auto"
       refY="0.0"
       refX="0.0"
       id="Arrow2Lend"
       style="overflow:visible;"
       inkscape:isstock="true">
      <path
         id="path4669"
         style="fill-rule:evenodd;stroke-width:0.625;stroke-linejoin:round;stroke:#136032;stroke-opacity:1;fill:#136032;fill-opacity:1"
         d="M 8.7185878,4.0337352 L -2.2072895,0.016013256 L 8.7185884,-4.0017078 C 6.9730900,-1.6296469 6.9831476,1.6157441 8.7185878,4.0337352 z "
         transform="scale(1.1) rotate(180) translate(1,0)" />
    </marker>
    <marker
       inkscape:stockid="Arrow1Send"
       orient="auto"
       refY="0.0"
       refX="0.0"
       id="marker6088"
       style="overflow:visible;"
       inkscape:isstock="true">
      <path
         id="path6086"
         d="M 0.0,0.0 L 5.0,-5.0 L -12.5,0.0 L 5.0,5.0 L 0.0,0.0 z "
         style="fill-rule:evenodd;stroke:#136032;stroke-width:1pt;stroke-opacity:1;fill:#136032;fill-opacity:1"
         transform="scale(0.2) rotate(180) translate(6,0)" />
    </marker>
    <marker
       inkscape:isstock="true"
       style="overflow:visible;"
       id="marker5332"
       refX="0.0"
       refY="0.0"
       orient="auto"
       inkscape:stockid="Arrow2Send">
      <path
         transform="scale(0.3) rotate(180) translate(-2.3,0)"
         d="M 8.7185878,4.0337352 L -2.2072895,0.016013256 L 8.7185884,-4.0017078 C 6.9730900,-1.6296469 6.9831476,1.6157441 8.7185878,4.0337352 z "
         style="fill-rule:evenodd;stroke-width:0.625;stroke-linejoin:round;stroke:#136032;stroke-opacity:1;fill:#136032;fill-opacity:1"
         id="path5330" />
    </marker>
    <marker
       inkscape:stockid="Arrow1Send"
       orient="auto"
       refY="0.0"
       refX="0.0"
       id="Arrow1Send"
       style="overflow:visible;"
       inkscape:isstock="true">
      <path
         id="path4663"
         d="M 0.0,0.0 L 5.0,-5.0 L -12.5,0.0 L 5.0,5.0 L 0.0,0.0 z "
         style="fill-rule:evenodd;stroke:#136032;stroke-width:1pt;stroke-opacity:1;fill:#136032;fill-opacity:1"
         transform="scale(0.2) rotate(180) translate(6,0)" />
    </marker>
    <marker
       inkscape:stockid="Arrow1Lend"
       orient="auto"
       refY="0.0"
       refX="0.0"
       id="Arrow1Lend"
       style="overflow:visible;"
       inkscape:isstock="true">
      <path
         id="path4651"
         d="M 0.0,0.0 L 5.0,-5.0 L -12.5,0.0 L 5.0,5.0 L 0.0,0.0 z "
         style="fill-rule:evenodd;stroke:#136032;stroke-width:1pt;stroke-opacity:1;fill:#136032;fill-opacity:1"
         transform="scale(0.8) rotate(180) translate(12.5,0)" />
    </marker>
    <marker
       inkscape:stockid="Arrow2Mend"
       orient="auto"
       refY="0.0"
       refX="0.0"
       id="marker4958"
       style="overflow:visible;"
       inkscape:isstock="true">
      <path
         id="path4956"
         style="fill-rule:evenodd;stroke-width:0.625;stroke-linejoin:round;stroke:#136032;stroke-opacity:1;fill:#136032;fill-opacity:1"
         d="M 8.7185878,4.0337352 L -2.2072895,0.016013256 L 8.7185884,-4.0017078 C 6.9730900,-1.6296469 6.9831476,1.6157441 8.7185878,4.0337352 z "
         transform="scale(0.6) rotate(180) translate(0,0)" />
    </marker>
    <marker
       inkscape:stockid="Arrow2Send"
       orient="auto"
       refY="0.0"
       refX="0.0"
       id="Arrow2Send"
       style="overflow:visible;"
       inkscape:isstock="true">
      <path
         id="path4681"
         style="fill-rule:evenodd;stroke-width:0.625;stroke-linejoin:round;stroke:#136032;stroke-opacity:1;fill:#136032;fill-opacity:1"
         d="M 8.7185878,4.0337352 L -2.2072895,0.016013256 L 8.7185884,-4.0017078 C 6.9730900,-1.6296469 6.9831476,1.6157441 8.7185878,4.0337352 z "
         transform="scale(0.3) rotate(180) translate(-2.3,0)" />
    </marker>
    <marker
       inkscape:stockid="Arrow2Mend"
       orient="auto"
       refY="0.0"
       refX="0.0"
       id="Arrow2Mend"
       style="overflow:visible;"
       inkscape:isstock="true">
      <path
         id="path4675"
         style="fill-rule:evenodd;stroke-width:0.625;stroke-linejoin:round;stroke:#136032;stroke-opacity:1;fill:#136032;fill-opacity:1"
         d="M 8.7185878,4.0337352 L -2.2072895,0.016013256 L 8.7185884,-4.0017078 C 6.9730900,-1.6296469 6.9831476,1.6157441 8.7185878,4.0337352 z "
         transform="scale(0.6) rotate(180) translate(0,0)" />
    </marker>
    <linearGradient
       id="linearGradient4571"
       osb:paint="solid">
      <stop
         style="stop-color:#000000;stop-opacity:1;"
         offset="0"
         id="stop4569" />
    </linearGradient>
    <marker
       inkscape:isstock="true"
       style="overflow:visible"
       id="TriangleOutS"
       refX="0.0"
       refY="0.0"
       orient="auto"
       inkscape:stockid="TriangleOutS">
      <path
         transform="scale(0.2)"
         style="fill-rule:evenodd;stroke:#ffffff;stroke-width:1pt;stroke-opacity:1;fill:#ffffff;fill-opacity:1"
         d="M 5.77,0.0 L -2.88,5.0 L -2.88,-5.0 L 5.77,0.0 z "
         id="path1170" />
    </marker>
    <marker
       inkscape:isstock="true"
       style="overflow:visible"
       id="marker1288"
       refX="0.0"
       refY="0.0"
       orient="auto"
       inkscape:stockid="TriangleOutM">
      <path
         transform="scale(0.4)"
         style="fill-rule:evenodd;stroke:#ffffff;stroke-width:1pt;stroke-opacity:1;fill:#ffffff;fill-opacity:1"
         d="M 5.77,0.0 L -2.88,5.0 L -2.88,-5.0 L 5.77,0.0 z "
         id="path1167" />
    </marker>
    <marker
       inkscape:isstock="true"
       style="overflow:visible;"
       id="marker1285"
       refX="0.0"
       refY="0.0"
       orient="auto"
       inkscape:stockid="Arrow2Send">
      <path
         transform="scale(0.3) rotate(180) translate(-2.3,0)"
         d="M 8.7185878,4.0337352 L -2.2072895,0.016013256 L 8.7185884,-4.0017078 C 6.9730900,-1.6296469 6.9831476,1.6157441 8.7185878,4.0337352 z "
         style="fill-rule:evenodd;stroke-width:0.625;stroke-linejoin:round;stroke:#000000;stroke-opacity:1;fill:#000000;fill-opacity:1"
         id="path1055" />
    </marker>
    <marker
       inkscape:stockid="TriangleOutS"
       orient="auto"
       refY="0.0"
       refX="0.0"
       id="marker1975-7"
       style="overflow:visible"
       inkscape:isstock="true">
      <path
         id="path1973-6"
         d="M 5.77,0.0 L -2.88,5.0 L -2.88,-5.0 L 5.77,0.0 z "
         style="fill-rule:evenodd;stroke:#136032;stroke-width:1pt;stroke-opacity:1;fill:#136032;fill-opacity:1"
         transform="scale(0.2)" />
    </marker>
    <marker
       inkscape:isstock="true"
       style="overflow:visible"
       id="TriangleOutM-7"
       refX="0.0"
       refY="0.0"
       orient="auto"
       inkscape:stockid="TriangleOutM">
      <path
         transform="scale(0.4)"
         style="fill-rule:evenodd;stroke:#136032;stroke-width:1pt;stroke-opacity:1;fill:#136032;fill-opacity:1"
         d="M 5.77,0.0 L -2.88,5.0 L -2.88,-5.0 L 5.77,0.0 z "
         id="path4793-7" />
    </marker>
    <marker
       inkscape:isstock="true"
       style="overflow:visible;"
       id="Arrow2Lend-0"
       refX="0.0"
       refY="0.0"
       orient="auto"
       inkscape:stockid="Arrow2Lend">
      <path
         transform="scale(1.1) rotate(180) translate(1,0)"
         d="M 8.7185878,4.0337352 L -2.2072895,0.016013256 L 8.7185884,-4.0017078 C 6.9730900,-1.6296469 6.9831476,1.6157441 8.7185878,4.0337352 z "
         style="fill-rule:evenodd;stroke-width:0.625;stroke-linejoin:round;stroke:#136032;stroke-opacity:1;fill:#136032;fill-opacity:1"
         id="path4669-2" />
    </marker>
    <marker
       inkscape:isstock="true"
       style="overflow:visible;"
       id="marker6088-1"
       refX="0.0"
       refY="0.0"
       orient="auto"
       inkscape:stockid="Arrow1Send">
      <path
         transform="scale(0.2) rotate(180) translate(6,0)"
         style="fill-rule:evenodd;stroke:#136032;stroke-width:1pt;stroke-opacity:1;fill:#136032;fill-opacity:1"
         d="M 0.0,0.0 L 5.0,-5.0 L -12.5,0.0 L 5.0,5.0 L 0.0,0.0 z "
         id="path6086-1" />
    </marker>
    <marker
       inkscape:stockid="Arrow2Send"
       orient="auto"
       refY="0.0"
       refX="0.0"
       id="marker5332-4"
       style="overflow:visible;"
       inkscape:isstock="true">
      <path
         id="path5330-3"
         style="fill-rule:evenodd;stroke-width:0.625;stroke-linejoin:round;stroke:#136032;stroke-opacity:1;fill:#136032;fill-opacity:1"
         d="M 8.7185878,4.0337352 L -2.2072895,0.016013256 L 8.7185884,-4.0017078 C 6.9730900,-1.6296469 6.9831476,1.6157441 8.7185878,4.0337352 z "
         transform="scale(0.3) rotate(180) translate(-2.3,0)" />
    </marker>
    <marker
       inkscape:isstock="true"
       style="overflow:visible;"
       id="Arrow1Send-7"
       refX="0.0"
       refY="0.0"
       orient="auto"
       inkscape:stockid="Arrow1Send">
      <path
         transform="scale(0.2) rotate(180) translate(6,0)"
         style="fill-rule:evenodd;stroke:#136032;stroke-width:1pt;stroke-opacity:1;fill:#136032;fill-opacity:1"
         d="M 0.0,0.0 L 5.0,-5.0 L -12.5,0.0 L 5.0,5.0 L 0.0,0.0 z "
         id="path4663-4" />
    </marker>
    <marker
       inkscape:isstock="true"
       style="overflow:visible;"
       id="Arrow1Lend-4"
       refX="0.0"
       refY="0.0"
       orient="auto"
       inkscape:stockid="Arrow1Lend">
      <path
         transform="scale(0.8) rotate(180) translate(12.5,0)"
         style="fill-rule:evenodd;stroke:#136032;stroke-width:1pt;stroke-opacity:1;fill:#136032;fill-opacity:1"
         d="M 0.0,0.0 L 5.0,-5.0 L -12.5,0.0 L 5.0,5.0 L 0.0,0.0 z "
         id="path4651-3" />
    </marker>
    <marker
       inkscape:isstock="true"
       style="overflow:visible;"
       id="marker4958-0"
       refX="0.0"
       refY="0.0"
       orient="auto"
       inkscape:stockid="Arrow2Mend">
      <path
         transform="scale(0.6) rotate(180) translate(0,0)"
         d="M 8.7185878,4.0337352 L -2.2072895,0.016013256 L 8.7185884,-4.0017078 C 6.9730900,-1.6296469 6.9831476,1.6157441 8.7185878,4.0337352 z "
         style="fill-rule:evenodd;stroke-width:0.625;stroke-linejoin:round;stroke:#136032;stroke-opacity:1;fill:#136032;fill-opacity:1"
         id="path4956-7" />
    </marker>
    <marker
       inkscape:isstock="true"
       style="overflow:visible;"
       id="Arrow2Send-9"
       refX="0.0"
       refY="0.0"
       orient="auto"
       inkscape:stockid="Arrow2Send">
      <path
         transform="scale(0.3) rotate(180) translate(-2.3,0)"
         d="M 8.7185878,4.0337352 L -2.2072895,0.016013256 L 8.7185884,-4.0017078 C 6.9730900,-1.6296469 6.9831476,1.6157441 8.7185878,4.0337352 z "
         style="fill-rule:evenodd;stroke-width:0.625;stroke-linejoin:round;stroke:#136032;stroke-opacity:1;fill:#136032;fill-opacity:1"
         id="path4681-9" />
    </marker>
    <marker
       inkscape:isstock="true"
       style="overflow:visible;"
       id="Arrow2Mend-9"
       refX="0.0"
       refY="0.0"
       orient="auto"
       inkscape:stockid="Arrow2Mend">
      <path
         transform="scale(0.6) rotate(180) translate(0,0)"
         d="M 8.7185878,4.0337352 L -2.2072895,0.016013256 L 8.7185884,-4.0017078 C 6.9730900,-1.6296469 6.9831476,1.6157441 8.7185878,4.0337352 z "
         style="fill-rule:evenodd;stroke-width:0.625;stroke-linejoin:round;stroke:#136032;stroke-opacity:1;fill:#136032;fill-opacity:1"
         id="path4675-4" />
    </marker>
    <clipPath
       clipPathUnits="userSpaceOnUse"
       id="clipPath1083">
      <ellipse
         style="opacity:1;fill:#ffffff;fill-opacity:1;stroke:none;stroke-width:2.83503246;stroke-linecap:round;stroke-linejoin:round;stroke-miterlimit:10.89999962;stroke-dasharray:none;stroke-dashoffset:0;stroke-opacity:1;paint-order:normal"
         id="ellipse1085"
         cx="29.621321"
         cy="25.327536"
         rx="19.025475"
         ry="10.11126" />
    </clipPath>
    <marker
       inkscape:stockid="TriangleOutS"
       orient="auto"
       refY="0.0"
       refX="0.0"
       id="marker1975-3"
       style="overflow:visible"
       inkscape:isstock="true">
      <path
         id="path1973-0"
         d="M 5.77,0.0 L -2.88,5.0 L -2.88,-5.0 L 5.77,0.0 z "
         style="fill-rule:evenodd;stroke:#136032;stroke-width:1pt;stroke-opacity:1;fill:#136032;fill-opacity:1"
         transform="scale(0.2)" />
    </marker>
    <marker
       inkscape:isstock="true"
       style="overflow:visible"
       id="TriangleOutM-0"
       refX="0.0"
       refY="0.0"
       orient="auto"
       inkscape:stockid="TriangleOutM">
      <path
         transform="scale(0.4)"
         style="fill-rule:evenodd;stroke:#136032;stroke-width:1pt;stroke-opacity:1;fill:#136032;fill-opacity:1"
         d="M 5.77,0.0 L -2.88,5.0 L -2.88,-5.0 L 5.77,0.0 z "
         id="path4793-3" />
    </marker>
    <marker
       inkscape:isstock="true"
       style="overflow:visible;"
       id="Arrow2Lend-8"
       refX="0.0"
       refY="0.0"
       orient="auto"
       inkscape:stockid="Arrow2Lend">
      <path
         transform="scale(1.1) rotate(180) translate(1,0)"
         d="M 8.7185878,4.0337352 L -2.2072895,0.016013256 L 8.7185884,-4.0017078 C 6.9730900,-1.6296469 6.9831476,1.6157441 8.7185878,4.0337352 z "
         style="fill-rule:evenodd;stroke-width:0.625;stroke-linejoin:round;stroke:#136032;stroke-opacity:1;fill:#136032;fill-opacity:1"
         id="path4669-3" />
    </marker>
    <marker
       inkscape:isstock="true"
       style="overflow:visible;"
       id="marker6088-6"
       refX="0.0"
       refY="0.0"
       orient="auto"
       inkscape:stockid="Arrow1Send">
      <path
         transform="scale(0.2) rotate(180) translate(6,0)"
         style="fill-rule:evenodd;stroke:#136032;stroke-width:1pt;stroke-opacity:1;fill:#136032;fill-opacity:1"
         d="M 0.0,0.0 L 5.0,-5.0 L -12.5,0.0 L 5.0,5.0 L 0.0,0.0 z "
         id="path6086-0" />
    </marker>
    <marker
       inkscape:stockid="Arrow2Send"
       orient="auto"
       refY="0.0"
       refX="0.0"
       id="marker5332-40"
       style="overflow:visible;"
       inkscape:isstock="true">
      <path
         id="path5330-9"
         style="fill-rule:evenodd;stroke-width:0.625;stroke-linejoin:round;stroke:#136032;stroke-opacity:1;fill:#136032;fill-opacity:1"
         d="M 8.7185878,4.0337352 L -2.2072895,0.016013256 L 8.7185884,-4.0017078 C 6.9730900,-1.6296469 6.9831476,1.6157441 8.7185878,4.0337352 z "
         transform="scale(0.3) rotate(180) translate(-2.3,0)" />
    </marker>
    <marker
       inkscape:isstock="true"
       style="overflow:visible;"
       id="Arrow1Send-2"
       refX="0.0"
       refY="0.0"
       orient="auto"
       inkscape:stockid="Arrow1Send">
      <path
         transform="scale(0.2) rotate(180) translate(6,0)"
         style="fill-rule:evenodd;stroke:#136032;stroke-width:1pt;stroke-opacity:1;fill:#136032;fill-opacity:1"
         d="M 0.0,0.0 L 5.0,-5.0 L -12.5,0.0 L 5.0,5.0 L 0.0,0.0 z "
         id="path4663-49" />
    </marker>
    <marker
       inkscape:isstock="true"
       style="overflow:visible;"
       id="Arrow1Lend-2"
       refX="0.0"
       refY="0.0"
       orient="auto"
       inkscape:stockid="Arrow1Lend">
      <path
         transform="scale(0.8) rotate(180) translate(12.5,0)"
         style="fill-rule:evenodd;stroke:#136032;stroke-width:1pt;stroke-opacity:1;fill:#136032;fill-opacity:1"
         d="M 0.0,0.0 L 5.0,-5.0 L -12.5,0.0 L 5.0,5.0 L 0.0,0.0 z "
         id="path4651-9" />
    </marker>
    <marker
       inkscape:isstock="true"
       style="overflow:visible;"
       id="marker4958-1"
       refX="0.0"
       refY="0.0"
       orient="auto"
       inkscape:stockid="Arrow2Mend">
      <path
         transform="scale(0.6) rotate(180) translate(0,0)"
         d="M 8.7185878,4.0337352 L -2.2072895,0.016013256 L 8.7185884,-4.0017078 C 6.9730900,-1.6296469 6.9831476,1.6157441 8.7185878,4.0337352 z "
         style="fill-rule:evenodd;stroke-width:0.625;stroke-linejoin:round;stroke:#136032;stroke-opacity:1;fill:#136032;fill-opacity:1"
         id="path4956-0" />
    </marker>
    <marker
       inkscape:isstock="true"
       style="overflow:visible;"
       id="Arrow2Send-93"
       refX="0.0"
       refY="0.0"
       orient="auto"
       inkscape:stockid="Arrow2Send">
      <path
         transform="scale(0.3) rotate(180) translate(-2.3,0)"
         d="M 8.7185878,4.0337352 L -2.2072895,0.016013256 L 8.7185884,-4.0017078 C 6.9730900,-1.6296469 6.9831476,1.6157441 8.7185878,4.0337352 z "
         style="fill-rule:evenodd;stroke-width:0.625;stroke-linejoin:round;stroke:#136032;stroke-opacity:1;fill:#136032;fill-opacity:1"
         id="path4681-0" />
    </marker>
    <marker
       inkscape:isstock="true"
       style="overflow:visible;"
       id="Arrow2Mend-0"
       refX="0.0"
       refY="0.0"
       orient="auto"
       inkscape:stockid="Arrow2Mend">
      <path
         transform="scale(0.6) rotate(180) translate(0,0)"
         d="M 8.7185878,4.0337352 L -2.2072895,0.016013256 L 8.7185884,-4.0017078 C 6.9730900,-1.6296469 6.9831476,1.6157441 8.7185878,4.0337352 z "
         style="fill-rule:evenodd;stroke-width:0.625;stroke-linejoin:round;stroke:#136032;stroke-opacity:1;fill:#136032;fill-opacity:1"
         id="path4675-3" />
    </marker>
  </defs>
  <metadata
     id="metadata3702">
    <rdf:RDF>
      <cc:Work
         rdf:about="">
        <dc:format>image/svg+xml</dc:format>
        <dc:type
           rdf:resource="http://purl.org/dc/dcmitype/StillImage" />
        <dc:title />
      </cc:Work>
    </rdf:RDF>
  </metadata>
  <g
     id="layer1"
     inkscape:groupmode="layer"
     inkscape:label="Layer 1"
     style="display:inline">
    <ellipse
       style="fill:#102131;fill-opacity:1;stroke:none;stroke-opacity:1"
       id="path3738"
       cx="30"
       cy="-30.003204"
       rx="30.07966"
       ry="29.996796"
       transform="scale(1,-1)"
       inkscape:export-filename="/Users/lorenzo/Desktop/esb-project/esb-intellij-plugin/src/main/resources/icons/default-component-icon.png"
       inkscape:export-xdpi="20.802221"
       inkscape:export-ydpi="20.802221" />
  </g>
  <g
     inkscape:groupmode="layer"
     id="layer4"
     inkscape:label="Gear"
     style="display:inline"
     sodipodi:insensitive="true" />
  <g
     inkscape:groupmode="layer"
     id="layer2"
     inkscape:label="Lense"
     style="display:inline">
    <rect
       style="opacity:1;fill:#ffffff;fill-opacity:0.71372549;stroke:none;stroke-width:3.85746455;stroke-linecap:round;stroke-linejoin:round;stroke-miterlimit:10.89999962;stroke-dasharray:none;stroke-dashoffset:0;stroke-opacity:1;paint-order:normal"
       id="rect1093"
       width="25"
       height="4"
       x="17.5"
       y="-28.982639"
       transform="scale(1,-1)" />
    <rect
       transform="scale(1,-1)"
       y="-22.941507"
       x="17.5"
       height="4"
       width="25"
       id="rect1106"
       style="opacity:1;fill:#ffffff;fill-opacity:0.71568627;stroke:none;stroke-width:3.85746455;stroke-linecap:round;stroke-linejoin:round;stroke-miterlimit:10.89999962;stroke-dasharray:none;stroke-dashoffset:0;stroke-opacity:1;paint-order:normal" />
    <rect
       transform="scale(1,-1)"
       y="-41.064903"
       x="17.5"
       height="4"
       width="25"
       id="rect1163"
       style="opacity:1;fill:#ffffff;fill-opacity:0.71372549;stroke:none;stroke-width:3.85746455;stroke-linecap:round;stroke-linejoin:round;stroke-miterlimit:10.89999962;stroke-dasharray:none;stroke-dashoffset:0;stroke-opacity:1;paint-order:normal" />
    <rect
       style="opacity:1;fill:#ffffff;fill-opacity:0.71568627;stroke:none;stroke-width:3.85746455;stroke-linecap:round;stroke-linejoin:round;stroke-miterlimit:10.89999962;stroke-dasharray:none;stroke-dashoffset:0;stroke-opacity:1;paint-order:normal"
       id="rect1165"
       width="25"
       height="4"
       x="17.5"
       y="-35.023773"
       transform="scale(1,-1)" />
  </g>
  <g
     inkscape:groupmode="layer"
     id="layer5"
     inkscape:label="gear background"
     style="display:inline">
    <circle
       style="opacity:1;fill:#102131;fill-opacity:1;stroke:none;stroke-width:9.40133667;stroke-linecap:round;stroke-linejoin:round;stroke-miterlimit:10.89999962;stroke-dasharray:none;stroke-dashoffset:0;stroke-opacity:1;paint-order:normal"
       id="path2547"
       cx="24.406748"
       cy="25.460253"
       r="9.9497471" />
    <rect
       style="opacity:1;fill:#102131;fill-opacity:1;stroke:none;stroke-width:4.72440958;stroke-linecap:round;stroke-linejoin:round;stroke-miterlimit:10.89999962;stroke-dasharray:none;stroke-dashoffset:0;stroke-opacity:1;paint-order:normal"
       id="rect1077"
       width="9"
       height="5"
       x="14"
       y="31" />
  </g>
  <g
     inkscape:groupmode="layer"
     id="layer3"
     inkscape:label="gear"
     style="display:inline">
    <g
       style="display:inline"
       id="g2540"
       transform="translate(-27.702419,32.182696)">
      <g
         inkscape:label="Gear"
         id="layer4-6"
         transform="matrix(0.51233623,0,0,0.51233623,34.55526,-22.312082)">
        <path
           style="fill:#ffffff;fill-opacity:1;stroke-width:1.45833445"
           inkscape:connector-curvature="0"
           d="M 47.80245,32.16226 V 27.448926 C 45.394738,26.592885 43.873694,26.35226 43.108068,24.504551 v -0.0014 c -0.768543,-1.853542 0.145833,-3.112083 1.23521,-5.406041 L 41.010982,15.764792 C 38.73452,16.846875 37.462851,17.77 35.604932,17 h -0.0014 c -1.85066,-0.767083 -2.092744,-2.298333 -2.944411,-4.694375 H 27.94578 C 27.097028,14.69 26.853487,16.231458 25.0014,17 H 25 c -1.853544,0.77 -3.109171,-0.142917 -5.40605,-1.235208 l -3.332328,3.332291 c 1.08646,2.286667 2.005211,3.549584 1.23521,5.406042 -0.768543,1.853542 -2.310003,2.097083 -4.694382,2.945833 v 4.713334 c 2.380004,0.845833 3.925839,1.092291 4.694382,2.944375 0.772918,1.869583 -0.16625,3.15875 -1.23521,5.406041 l 3.332296,3.33375 c 2.277921,-1.083541 3.549589,-2.005208 5.40605,-1.235208 h 0.0014 c 1.852087,0.767083 2.09417,2.302708 2.94438,4.694375 h 4.713341 c 0.848751,-2.385833 1.093751,-3.922917 2.956045,-4.69875 h 0.0014 c 1.840419,-0.764167 3.091671,0.147292 5.392924,1.241042 l 3.332297,-3.33375 c -1.085002,-2.279375 -2.005211,-3.548125 -1.236669,-5.404584 0.768543,-1.853541 2.315838,-2.1 4.697299,-2.947291 z m -17.500026,3.476666 c -3.221463,0 -5.833342,-2.611875 -5.833342,-5.833333 0,-3.221458 2.611879,-5.833333 5.833342,-5.833333 3.221463,0 5.833342,2.611875 5.833342,5.833333 0,3.221458 -2.611879,5.833333 -5.833342,5.833333 z"
           id="path1108" />
      </g>
    </g>
  </g>
</svg>
